<?xml version="1.0" encoding="UTF-8"?>
<svg id="Layer_1" data-name="Layer 1" xmlns="http://www.w3.org/2000/svg" viewBox="0 0 600 552.93">
  <defs>
    <style>
      .cls-1 {
        fill: #222;
        fill-rule: evenodd;
      }
    </style>
  </defs>
  <path class="cls-1" d="M600,213.33c0-74.67,0-112.01-14.53-140.53-12.78-25.09-33.18-45.49-58.27-58.27C498.68,0,461.34,0,386.67,0h-173.33c-74.67,0-112.01,0-140.53,14.53-25.09,12.78-45.48,33.18-58.27,58.27C0,101.32,0,138.66,0,213.33v40c0,74.67,0,112.01,14.53,140.53,12.78,25.09,33.18,45.48,58.27,58.27,28.52,14.53,65.86,14.53,140.53,14.53h239.53c8.84,0,17.32,3.51,23.57,9.76l66.67,66.67c21,21,56.9,6.13,56.9-23.57V213.33ZM400,133.33c18.41,0,33.33,14.92,33.33,33.33s-14.92,33.33-33.33,33.33h-200c-18.41,0-33.33-14.92-33.33-33.33s14.92-33.33,33.33-33.33h200ZM400,266.67c18.41,0,33.33,14.92,33.33,33.33s-14.92,33.33-33.33,33.33h-100c-18.41,0-33.33-14.92-33.33-33.33s14.92-33.33,33.33-33.33h100Z"/>
</svg>