<?xml version="1.0" encoding="UTF-8"?>
<svg id="Layer_1" data-name="Layer 1" xmlns="http://www.w3.org/2000/svg" viewBox="0 0 148.08 147.55">
  <defs>
    <style>
      .cls-1 {
        fill: #000101;
      }

      .cls-2 {
        fill: #000100;
      }
    </style>
  </defs>
  <path class="cls-1" d="M87.25,146.81l-4.84.75-1.76-14.88,6.58-1.16c2.49-.58,4.86-1.34,7.26-2.21,8.88-3.37,16.76-8.79,23.14-15.81l2.61-3.08c3.5-4.39,6.34-9.24,8.47-14.44,5.75-14.05,5.77-29.9,0-43.96-2.48-6.05-6-11.6-10.29-16.55-5.31-6.12-11.83-11.1-19.11-14.67-7.8-3.82-16.3-5.8-24.97-5.84-.14,0-.19,0-.25-.03-.04-.02-.06-.09-.06-.22V0c5.53,0,10.96.58,16.31,1.83,10.95,2.56,21.08,7.55,29.82,14.62,3.94,3.21,7.63,6.78,10.84,10.71,2.33,2.85,4.44,5.78,6.34,8.92,4.32,7.11,7.47,14.87,9.18,23.03,1.97,9.44,2.07,19.09.26,28.56-.7,3.67-1.7,7.22-2.96,10.74-2.17,6.06-5.14,11.77-8.79,17.07-4.87,7.08-10.85,13.29-17.82,18.3-3.77,2.71-7.73,5.12-11.92,7.13-5.75,2.75-11.73,4.77-18.05,5.9Z"/>
  <polygon class="cls-1" points="82.09 112.02 65.99 112.03 65.98 82.04 36.02 82.03 36.03 65.97 66 65.96 65.99 35.98 82.09 35.98 82.09 65.96 112.06 65.97 112.06 82.03 82.09 82.04 82.09 112.02"/>
  <path class="cls-2" d="M20.63,98.76l-6.37,2.97-7.23,3.36-2.63-6.2c-7-19.06-5.62-40.17,3.72-58.17,4.95-9.53,11.73-17.83,20.14-24.51,5.85-4.7,12.34-8.45,19.33-11.21,4.08-1.58,8.23-2.78,12.63-3.69l2.68,14.75c-9.91,1.94-19.12,6.5-26.83,13.07-11.44,9.8-18.98,23.26-20.66,38.32-.92,8.25-.12,16.53,2.46,24.4.78,2.36,1.62,4.62,2.74,6.91Z"/>
  <path class="cls-1" d="M67.4,132.69l-1.79,14.86c-13.04-1.54-24.89-6.5-35.43-14.28-5.32-3.93-10.06-8.56-14.21-13.76l11.68-9.34c3.12,3.95,6.63,7.41,10.57,10.47,2.93,2.32,6.05,4.25,9.36,5.98,4.49,2.3,9.2,4,14.12,5.09l5.69.98Z"/>
</svg>