<?xml version="1.0" encoding="UTF-8"?>
<svg id="Layer_1" data-name="Layer 1" xmlns="http://www.w3.org/2000/svg" viewBox="0 0 284.94 289.49">
  <defs>
    <style>
      .cls-1 {
        fill: #fff;
      }
    </style>
  </defs>
  <g id="Generative_Object" data-name="Generative Object">
    <path class="cls-1" d="M236.6,155.02c.01-6.58,6.11-11.26,12.06-11.12,6.43.15,11.58,5.29,11.58,11.88l.03,78.69c0,6.06-.49,11.82-2.27,17.58-4.91,15.93-17.67,29.4-33.51,34.66-5.04,1.67-10.29,2.74-15.69,2.74l-154.99.04c-14.79,0-27.44-4.82-37.94-15.04C6.69,265.5.03,251.74.03,238.97L0,80.58C0,53.02,23.72,29.19,51.1,29.18l66.15-.04c3.41,0,6.66,1.62,8.75,4.06,3.13,3.66,3.84,8.58,1.81,12.95-1.83,3.96-6.03,6.75-10.79,6.75H50c-14.44,1.19-25.5,12.93-26.24,27.38l.08,157.52c0,14.59,13.06,27.9,28.19,27.9h156.09c5.07,0,9.76-1.41,14.03-3.96,8.37-5,13.57-13.64,14.29-23.41v-9.03s.16-74.27.16-74.27Z"/>
    <path class="cls-1" d="M230.07,113.01c-.36,1.54-1.48,2.28-2.82,2.27s-2.3-.94-2.63-2.39c-1.39-6.27-3.04-12.36-5.25-18.42-5.57-15.32-13.65-23.37-28.97-28.99-6.04-2.21-12.15-3.84-18.42-5.27-1.27-.29-2.11-1.35-2.14-2.51-.04-1.27.82-2.36,2.11-2.7l13.63-3.61c8.19-2.58,16.75-6.19,22.87-12.32,3.39-3.39,6.01-7.26,8.11-11.57,1.91-3.91,3.43-7.83,4.63-12.01l1.69-5.9,2.08-7.9c.29-1.09,1.58-1.76,2.57-1.69,1.14.09,2.04.94,2.37,2.13l4.12,14.91c1.3,4.72,3.27,9.09,5.7,13.32,2.86,4.98,6.55,9.18,11.22,12.51,3.71,2.64,7.67,4.67,11.93,6.29l9.34,3.1,10.64,2.74c1.27.33,2.06,1.35,2.08,2.53.03,1.29-.79,2.28-2.12,2.65l-15.19,4.13c-3.78,1.03-7.19,2.57-10.67,4.36-11.7,5.99-17.63,14.43-21.91,26.67-2.03,5.8-3.55,11.62-4.97,17.66Z"/>
    <rect class="cls-1" x="123.42" y="152.69" width="129.73" height="22.79" transform="translate(24.11 352.29) rotate(-89.97)"/>
    <path class="cls-1" d="M167.45,228.48l-20.07-52.57-17.14-45.01-11.98-31.66h-19.12l-2.59,6.65-46.86,123.03,24.02.02,13.92-37.23h41.75l14.22,37.22h23.5c.35.08.48-.1.35-.45ZM95.02,171.12l10.09-28.87,3.47-10.78,13.48,39.63-27.04.02Z"/>
  </g>
</svg>